<mxfile host="app.diagrams.net" agent="Mozilla/5.0 (Windows NT 10.0; Win64; x64) AppleWebKit/537.36 (KHTML, like Gecko) Chrome/136.0.0.0 Safari/537.36" version="27.0.5">
  <diagram id="prtHgNgQTEPvFCAcTncT" name="Page-1">
    <mxGraphModel dx="1988" dy="436" grid="1" gridSize="10" guides="1" tooltips="1" connect="1" arrows="1" fold="1" page="1" pageScale="1" pageWidth="827" pageHeight="1169" math="0" shadow="0">
      <root>
        <mxCell id="0" />
        <mxCell id="1" parent="0" />
        <mxCell id="F1oCU3KucGZXw1zdUeXQ-5" value="Room Recommendation System" style="swimlane;html=1;startSize=20;horizontal=1;containerType=tree;glass=0;" parent="1" vertex="1">
          <mxGeometry x="-110" y="70" width="370" height="280" as="geometry" />
        </mxCell>
        <mxCell id="F1oCU3KucGZXw1zdUeXQ-23" style="edgeStyle=orthogonalEdgeStyle;rounded=0;orthogonalLoop=1;jettySize=auto;html=1;exitX=1;exitY=0.5;exitDx=0;exitDy=0;entryX=0;entryY=0.5;entryDx=0;entryDy=0;" parent="F1oCU3KucGZXw1zdUeXQ-5" source="F1oCU3KucGZXw1zdUeXQ-9" target="F1oCU3KucGZXw1zdUeXQ-12" edge="1">
          <mxGeometry relative="1" as="geometry" />
        </mxCell>
        <mxCell id="F1oCU3KucGZXw1zdUeXQ-9" value="Web Client" style="rounded=0;whiteSpace=wrap;html=1;" parent="F1oCU3KucGZXw1zdUeXQ-5" vertex="1">
          <mxGeometry x="30" y="75" width="80" height="50" as="geometry" />
        </mxCell>
        <mxCell id="F1oCU3KucGZXw1zdUeXQ-21" style="edgeStyle=orthogonalEdgeStyle;rounded=0;orthogonalLoop=1;jettySize=auto;html=1;exitX=0.5;exitY=1;exitDx=0;exitDy=0;" parent="F1oCU3KucGZXw1zdUeXQ-5" source="F1oCU3KucGZXw1zdUeXQ-12" target="F1oCU3KucGZXw1zdUeXQ-19" edge="1">
          <mxGeometry relative="1" as="geometry" />
        </mxCell>
        <mxCell id="F1oCU3KucGZXw1zdUeXQ-12" value="Embedding&lt;div&gt;Model&lt;/div&gt;" style="rounded=0;whiteSpace=wrap;html=1;" parent="F1oCU3KucGZXw1zdUeXQ-5" vertex="1">
          <mxGeometry x="190" y="70" width="110" height="60" as="geometry" />
        </mxCell>
        <mxCell id="F1oCU3KucGZXw1zdUeXQ-6" value="User" style="shape=umlActor;verticalLabelPosition=bottom;verticalAlign=top;html=1;outlineConnect=0;" parent="F1oCU3KucGZXw1zdUeXQ-5" vertex="1">
          <mxGeometry x="-140" y="70" width="30" height="60" as="geometry" />
        </mxCell>
        <mxCell id="F1oCU3KucGZXw1zdUeXQ-37" style="edgeStyle=orthogonalEdgeStyle;rounded=0;orthogonalLoop=1;jettySize=auto;html=1;exitX=0;exitY=0.5;exitDx=0;exitDy=0;exitPerimeter=0;entryX=1;entryY=0.5;entryDx=0;entryDy=0;" parent="F1oCU3KucGZXw1zdUeXQ-5" source="F1oCU3KucGZXw1zdUeXQ-19" target="F1oCU3KucGZXw1zdUeXQ-36" edge="1">
          <mxGeometry relative="1" as="geometry" />
        </mxCell>
        <mxCell id="F1oCU3KucGZXw1zdUeXQ-19" value="Vector DataBase" style="shape=cylinder3;whiteSpace=wrap;html=1;boundedLbl=1;backgroundOutline=1;size=15;" parent="F1oCU3KucGZXw1zdUeXQ-5" vertex="1">
          <mxGeometry x="200" y="160" width="90" height="80" as="geometry" />
        </mxCell>
        <mxCell id="F1oCU3KucGZXw1zdUeXQ-38" style="edgeStyle=orthogonalEdgeStyle;rounded=0;orthogonalLoop=1;jettySize=auto;html=1;exitX=0.5;exitY=0;exitDx=0;exitDy=0;entryX=0.5;entryY=1;entryDx=0;entryDy=0;" parent="F1oCU3KucGZXw1zdUeXQ-5" source="F1oCU3KucGZXw1zdUeXQ-36" target="F1oCU3KucGZXw1zdUeXQ-9" edge="1">
          <mxGeometry relative="1" as="geometry" />
        </mxCell>
        <mxCell id="F1oCU3KucGZXw1zdUeXQ-36" value="&lt;div&gt;LLM&lt;/div&gt;&lt;div&gt;Gemma3&lt;/div&gt;" style="rounded=0;whiteSpace=wrap;html=1;" parent="F1oCU3KucGZXw1zdUeXQ-5" vertex="1">
          <mxGeometry x="30" y="170" width="80" height="60" as="geometry" />
        </mxCell>
        <mxCell id="F1oCU3KucGZXw1zdUeXQ-17" style="edgeStyle=orthogonalEdgeStyle;rounded=0;orthogonalLoop=1;jettySize=auto;html=1;exitX=0;exitY=0.5;exitDx=0;exitDy=0;exitPerimeter=0;entryX=1;entryY=0.5;entryDx=0;entryDy=0;" parent="F1oCU3KucGZXw1zdUeXQ-5" source="F1oCU3KucGZXw1zdUeXQ-1" target="F1oCU3KucGZXw1zdUeXQ-12" edge="1">
          <mxGeometry relative="1" as="geometry" />
        </mxCell>
        <mxCell id="F1oCU3KucGZXw1zdUeXQ-1" value="Room&lt;div&gt;Data Set&lt;/div&gt;" style="shape=cylinder3;whiteSpace=wrap;html=1;boundedLbl=1;backgroundOutline=1;size=15;" parent="F1oCU3KucGZXw1zdUeXQ-5" vertex="1">
          <mxGeometry x="390" y="60" width="90" height="80" as="geometry" />
        </mxCell>
        <mxCell id="F1oCU3KucGZXw1zdUeXQ-11" value="User Query" style="text;html=1;align=center;verticalAlign=middle;resizable=0;points=[];autosize=1;strokeColor=none;fillColor=none;" parent="F1oCU3KucGZXw1zdUeXQ-5" vertex="1">
          <mxGeometry x="-85" y="60" width="80" height="30" as="geometry" />
        </mxCell>
        <mxCell id="F1oCU3KucGZXw1zdUeXQ-10" value="" style="endArrow=classic;html=1;rounded=0;entryX=0;entryY=0.5;entryDx=0;entryDy=0;" parent="F1oCU3KucGZXw1zdUeXQ-5" edge="1">
          <mxGeometry width="50" height="50" relative="1" as="geometry">
            <mxPoint x="-100" y="90" as="sourcePoint" />
            <mxPoint x="30" y="90.00000000000006" as="targetPoint" />
          </mxGeometry>
        </mxCell>
        <mxCell id="F1oCU3KucGZXw1zdUeXQ-40" value="" style="endArrow=classic;html=1;rounded=0;exitX=0;exitY=0.9;exitDx=0;exitDy=0;exitPerimeter=0;" parent="F1oCU3KucGZXw1zdUeXQ-5" edge="1">
          <mxGeometry width="50" height="50" relative="1" as="geometry">
            <mxPoint x="30" y="110" as="sourcePoint" />
            <mxPoint x="-100" y="110" as="targetPoint" />
          </mxGeometry>
        </mxCell>
        <mxCell id="F1oCU3KucGZXw1zdUeXQ-41" value="LLM Response" style="text;html=1;align=center;verticalAlign=middle;resizable=0;points=[];autosize=1;strokeColor=none;fillColor=none;" parent="F1oCU3KucGZXw1zdUeXQ-5" vertex="1">
          <mxGeometry x="-95" y="110" width="100" height="30" as="geometry" />
        </mxCell>
        <mxCell id="F1oCU3KucGZXw1zdUeXQ-42" value="RAG" style="swimlane;html=1;startSize=20;horizontal=1;containerType=tree;glass=0;" parent="F1oCU3KucGZXw1zdUeXQ-5" vertex="1">
          <mxGeometry x="150" y="30" width="190" height="230" as="geometry" />
        </mxCell>
        <mxCell id="F1oCU3KucGZXw1zdUeXQ-58" value="Room Information System" style="swimlane;html=1;startSize=20;horizontal=1;containerType=tree;glass=0;" parent="1" vertex="1">
          <mxGeometry x="414" y="70" width="286" height="280" as="geometry" />
        </mxCell>
        <mxCell id="PzHXwChlqDDCx3O6kuuf-2" style="edgeStyle=orthogonalEdgeStyle;rounded=0;orthogonalLoop=1;jettySize=auto;html=1;exitX=0.5;exitY=1;exitDx=0;exitDy=0;entryX=1;entryY=0.5;entryDx=0;entryDy=0;" edge="1" parent="F1oCU3KucGZXw1zdUeXQ-58" source="F1oCU3KucGZXw1zdUeXQ-74" target="F1oCU3KucGZXw1zdUeXQ-85">
          <mxGeometry relative="1" as="geometry" />
        </mxCell>
        <mxCell id="F1oCU3KucGZXw1zdUeXQ-74" value="LLM&lt;div&gt;Gemma3&lt;/div&gt;" style="rounded=0;whiteSpace=wrap;html=1;" parent="F1oCU3KucGZXw1zdUeXQ-58" vertex="1">
          <mxGeometry x="176" y="70" width="80" height="60" as="geometry" />
        </mxCell>
        <mxCell id="F1oCU3KucGZXw1zdUeXQ-86" value="Room Information" style="text;html=1;align=center;verticalAlign=middle;resizable=0;points=[];autosize=1;strokeColor=none;fillColor=none;" parent="F1oCU3KucGZXw1zdUeXQ-58" vertex="1">
          <mxGeometry x="31" y="70" width="120" height="30" as="geometry" />
        </mxCell>
        <mxCell id="F1oCU3KucGZXw1zdUeXQ-85" value="Stable&lt;div&gt;Diffusion&lt;/div&gt;" style="rounded=0;whiteSpace=wrap;html=1;" parent="F1oCU3KucGZXw1zdUeXQ-58" vertex="1">
          <mxGeometry x="26" y="190" width="80" height="60" as="geometry" />
        </mxCell>
        <mxCell id="PzHXwChlqDDCx3O6kuuf-3" value="Room Information" style="text;html=1;align=center;verticalAlign=middle;resizable=0;points=[];autosize=1;strokeColor=none;fillColor=none;" vertex="1" parent="F1oCU3KucGZXw1zdUeXQ-58">
          <mxGeometry x="96" y="150" width="120" height="30" as="geometry" />
        </mxCell>
        <mxCell id="F1oCU3KucGZXw1zdUeXQ-83" style="edgeStyle=orthogonalEdgeStyle;rounded=0;orthogonalLoop=1;jettySize=auto;html=1;exitX=0;exitY=0.5;exitDx=0;exitDy=0;entryX=1;entryY=0.5;entryDx=0;entryDy=0;entryPerimeter=0;" parent="1" source="F1oCU3KucGZXw1zdUeXQ-74" target="F1oCU3KucGZXw1zdUeXQ-1" edge="1">
          <mxGeometry relative="1" as="geometry" />
        </mxCell>
        <mxCell id="F1oCU3KucGZXw1zdUeXQ-103" style="edgeStyle=orthogonalEdgeStyle;rounded=0;orthogonalLoop=1;jettySize=auto;html=1;exitX=0;exitY=0.5;exitDx=0;exitDy=0;entryX=0.5;entryY=1;entryDx=0;entryDy=0;entryPerimeter=0;" parent="1" source="F1oCU3KucGZXw1zdUeXQ-85" target="F1oCU3KucGZXw1zdUeXQ-1" edge="1">
          <mxGeometry relative="1" as="geometry" />
        </mxCell>
        <mxCell id="F1oCU3KucGZXw1zdUeXQ-104" value="Image" style="text;html=1;align=center;verticalAlign=middle;resizable=0;points=[];autosize=1;strokeColor=none;fillColor=none;" parent="1" vertex="1">
          <mxGeometry x="350" y="260" width="60" height="30" as="geometry" />
        </mxCell>
        <mxCell id="F1oCU3KucGZXw1zdUeXQ-81" value="Prompt &amp;amp; Keywords" style="text;html=1;align=center;verticalAlign=middle;resizable=0;points=[];autosize=1;strokeColor=none;fillColor=none;" parent="1" vertex="1">
          <mxGeometry x="730" y="155" width="130" height="30" as="geometry" />
        </mxCell>
        <mxCell id="F1oCU3KucGZXw1zdUeXQ-80" value="" style="endArrow=classic;html=1;rounded=0;entryX=1;entryY=0.5;entryDx=0;entryDy=0;" parent="1" source="F1oCU3KucGZXw1zdUeXQ-81" target="F1oCU3KucGZXw1zdUeXQ-74" edge="1">
          <mxGeometry width="50" height="50" relative="1" as="geometry">
            <mxPoint x="925" y="170" as="sourcePoint" />
            <mxPoint x="935" y="185" as="targetPoint" />
          </mxGeometry>
        </mxCell>
      </root>
    </mxGraphModel>
  </diagram>
</mxfile>
